<svg width="242" height="40" viewBox="0 0 242 40" fill="none" xmlns="http://www.w3.org/2000/svg">
<g clip-path="url(#clip0_8_3)">
<rect width="40" height="40" rx="20" fill="#160E7A"/>
<path d="M11.6903 31V9.18182H20.7884C22.4219 9.18182 23.7891 9.41264 24.8899 9.87429C25.9979 10.3359 26.8288 10.9822 27.3828 11.8132C27.9439 12.6442 28.2244 13.6065 28.2244 14.7003C28.2244 15.5312 28.0504 16.2734 27.7024 16.9268C27.3544 17.5732 26.875 18.1094 26.2642 18.5355C25.6534 18.9616 24.9467 19.2599 24.1442 19.4304V19.6435C25.0249 19.6861 25.8381 19.924 26.5838 20.3572C27.3366 20.7905 27.9403 21.3942 28.3949 22.1683C28.8494 22.9354 29.0767 23.8445 29.0767 24.8956C29.0767 26.0675 28.7784 27.1151 28.1818 28.0384C27.5852 28.9545 26.7223 29.679 25.593 30.2116C24.4638 30.7372 23.093 31 21.4808 31H11.6903ZM16.9638 26.7493H20.2237C21.3672 26.7493 22.2088 26.5327 22.7486 26.0994C23.2955 25.6662 23.5689 25.0625 23.5689 24.2884C23.5689 23.7273 23.4375 23.2443 23.1747 22.8395C22.9119 22.4276 22.5391 22.1115 22.0561 21.8913C21.5732 21.6641 20.9943 21.5504 20.3196 21.5504H16.9638V26.7493ZM16.9638 18.152H19.8828C20.4581 18.152 20.9695 18.0561 21.4169 17.8643C21.8643 17.6726 22.2124 17.3956 22.4609 17.0334C22.7166 16.6712 22.8445 16.2344 22.8445 15.723C22.8445 14.9915 22.5852 14.4162 22.0668 13.9972C21.5483 13.5781 20.8487 13.3686 19.968 13.3686H16.9638V18.152Z" fill="white"/>
<path d="M46.6513 31V9.18182H55.7493C57.3828 9.18182 58.75 9.41264 59.8509 9.87429C60.9588 10.3359 61.7898 10.9822 62.3438 11.8132C62.9048 12.6442 63.1854 13.6065 63.1854 14.7003C63.1854 15.5312 63.0114 16.2734 62.6634 16.9268C62.3153 17.5732 61.8359 18.1094 61.2251 18.5355C60.6143 18.9616 59.9077 19.2599 59.1051 19.4304V19.6435C59.9858 19.6861 60.799 19.924 61.5447 20.3572C62.2976 20.7905 62.9013 21.3942 63.3558 22.1683C63.8104 22.9354 64.0376 23.8445 64.0376 24.8956C64.0376 26.0675 63.7393 27.1151 63.1428 28.0384C62.5462 28.9545 61.6832 29.679 60.554 30.2116C59.4247 30.7372 58.054 31 56.4418 31H46.6513ZM51.9247 26.7493H55.1847C56.3281 26.7493 57.1697 26.5327 57.7095 26.0994C58.2564 25.6662 58.5298 25.0625 58.5298 24.2884C58.5298 23.7273 58.3984 23.2443 58.1357 22.8395C57.8729 22.4276 57.5 22.1115 57.017 21.8913C56.5341 21.6641 55.9553 21.5504 55.2805 21.5504H51.9247V26.7493ZM51.9247 18.152H54.8438C55.419 18.152 55.9304 18.0561 56.3778 17.8643C56.8253 17.6726 57.1733 17.3956 57.4219 17.0334C57.6776 16.6712 57.8054 16.2344 57.8054 15.723C57.8054 14.9915 57.5462 14.4162 57.0277 13.9972C56.5092 13.5781 55.8097 13.3686 54.929 13.3686H51.9247V18.152ZM71.7827 9.18182V31H66.5732V9.18182H71.7827ZM82.737 31.3089C81.0183 31.3089 79.541 30.9574 78.3052 30.2543C77.0765 29.544 76.1284 28.5568 75.4608 27.2926C74.8002 26.0213 74.47 24.5476 74.47 22.8714C74.47 21.1882 74.8002 19.7145 75.4608 18.4503C76.1284 17.179 77.0765 16.1918 78.3052 15.4886C79.541 14.7784 81.0183 14.4233 82.737 14.4233C84.4558 14.4233 85.9295 14.7784 87.1582 15.4886C88.394 16.1918 89.3422 17.179 90.0027 18.4503C90.6703 19.7145 91.0041 21.1882 91.0041 22.8714C91.0041 24.5476 90.6703 26.0213 90.0027 27.2926C89.3422 28.5568 88.394 29.544 87.1582 30.2543C85.9295 30.9574 84.4558 31.3089 82.737 31.3089ZM82.769 27.3778C83.394 27.3778 83.9231 27.1861 84.3564 26.8026C84.7896 26.419 85.1199 25.8864 85.3471 25.2045C85.5815 24.5227 85.6987 23.7344 85.6987 22.8395C85.6987 21.9304 85.5815 21.1349 85.3471 20.4531C85.1199 19.7713 84.7896 19.2386 84.3564 18.8551C83.9231 18.4716 83.394 18.2798 82.769 18.2798C82.1227 18.2798 81.5758 18.4716 81.1284 18.8551C80.688 19.2386 80.3507 19.7713 80.1163 20.4531C79.889 21.1349 79.7754 21.9304 79.7754 22.8395C79.7754 23.7344 79.889 24.5227 80.1163 25.2045C80.3507 25.8864 80.688 26.419 81.1284 26.8026C81.5758 27.1861 82.1227 27.3778 82.769 27.3778ZM101.301 37.4773C99.7452 37.4773 98.4135 37.2607 97.3056 36.8274C96.1976 36.3942 95.3276 35.8011 94.6955 35.0483C94.0634 34.2955 93.6834 33.4432 93.5556 32.4915L98.4881 32.2145C98.5804 32.5483 98.7509 32.8395 98.9995 33.0881C99.2551 33.3366 99.5854 33.5284 99.9902 33.6634C100.402 33.7983 100.885 33.8658 101.439 33.8658C102.313 33.8658 103.034 33.6527 103.602 33.2266C104.177 32.8075 104.465 32.0724 104.465 31.0213V28.1449H104.284C104.078 28.6491 103.765 29.1001 103.346 29.4979C102.927 29.8956 102.405 30.2081 101.78 30.4354C101.162 30.6626 100.452 30.7763 99.6493 30.7763C98.4561 30.7763 97.3624 30.4993 96.3681 29.9453C95.3809 29.3842 94.589 28.5178 93.9924 27.3459C93.4029 26.1669 93.1081 24.6506 93.1081 22.7969C93.1081 20.8864 93.4135 19.3132 94.0243 18.0774C94.6351 16.8345 95.4341 15.9148 96.4213 15.3182C97.4157 14.7216 98.4846 14.4233 99.628 14.4233C100.487 14.4233 101.222 14.5724 101.833 14.8707C102.451 15.1619 102.959 15.5384 103.357 16C103.754 16.4616 104.056 16.9411 104.262 17.4382H104.411V14.6364H109.6V31.0639C109.6 32.4489 109.252 33.6172 108.556 34.5689C107.86 35.5206 106.887 36.2415 105.637 36.7315C104.387 37.2287 102.941 37.4773 101.301 37.4773ZM101.46 26.9837C102.093 26.9837 102.632 26.8168 103.08 26.483C103.527 26.1491 103.872 25.6697 104.113 25.0447C104.355 24.4197 104.475 23.6705 104.475 22.7969C104.475 21.9091 104.355 21.1456 104.113 20.5064C103.879 19.8601 103.534 19.3629 103.08 19.0149C102.632 18.6669 102.093 18.4929 101.46 18.4929C100.814 18.4929 100.267 18.6705 99.8198 19.0256C99.3723 19.3807 99.0314 19.8814 98.7971 20.5277C98.5698 21.1669 98.4561 21.9233 98.4561 22.7969C98.4561 23.6705 98.5733 24.4197 98.8077 25.0447C99.0421 25.6697 99.3794 26.1491 99.8198 26.483C100.267 26.8168 100.814 26.9837 101.46 26.9837ZM133.684 16.3089C133.564 15.8615 133.386 15.4673 133.152 15.1264C132.917 14.7784 132.63 14.4837 132.289 14.2422C131.948 14.0007 131.557 13.8196 131.117 13.6989C130.676 13.571 130.194 13.5071 129.668 13.5071C128.61 13.5071 127.694 13.7628 126.919 14.2741C126.152 14.7855 125.559 15.5312 125.14 16.5114C124.721 17.4844 124.512 18.6669 124.512 20.0589C124.512 21.4581 124.714 22.6513 125.119 23.6385C125.524 24.6257 126.11 25.3786 126.877 25.897C127.644 26.4155 128.574 26.6747 129.668 26.6747C130.634 26.6747 131.451 26.5185 132.118 26.206C132.793 25.8864 133.304 25.4354 133.652 24.853C134 24.2706 134.174 23.5852 134.174 22.7969L135.154 22.9141H129.849V19.0682H139.256V21.9553C139.256 23.9084 138.841 25.581 138.01 26.973C137.186 28.3651 136.049 29.4339 134.6 30.1797C133.159 30.9254 131.5 31.2983 129.625 31.2983C127.544 31.2983 125.716 30.8473 124.139 29.9453C122.562 29.0433 121.333 27.7578 120.453 26.0888C119.572 24.4126 119.132 22.424 119.132 20.1229C119.132 18.3331 119.398 16.7457 119.931 15.3608C120.463 13.9687 121.206 12.7898 122.157 11.8239C123.116 10.858 124.224 10.1264 125.481 9.62926C126.745 9.1321 128.105 8.88352 129.561 8.88352C130.826 8.88352 132.001 9.06463 133.088 9.42685C134.181 9.78906 135.147 10.3004 135.985 10.9609C136.831 11.6214 137.516 12.4063 138.042 13.3153C138.567 14.2244 138.894 15.2223 139.022 16.3089H133.684ZM150.003 31.3089C148.284 31.3089 146.807 30.9574 145.571 30.2543C144.342 29.544 143.394 28.5568 142.726 27.2926C142.066 26.0213 141.736 24.5476 141.736 22.8714C141.736 21.1882 142.066 19.7145 142.726 18.4503C143.394 17.179 144.342 16.1918 145.571 15.4886C146.807 14.7784 148.284 14.4233 150.003 14.4233C151.721 14.4233 153.195 14.7784 154.424 15.4886C155.66 16.1918 156.608 17.179 157.268 18.4503C157.936 19.7145 158.27 21.1882 158.27 22.8714C158.27 24.5476 157.936 26.0213 157.268 27.2926C156.608 28.5568 155.66 29.544 154.424 30.2543C153.195 30.9574 151.721 31.3089 150.003 31.3089ZM150.035 27.3778C150.66 27.3778 151.189 27.1861 151.622 26.8026C152.055 26.419 152.385 25.8864 152.613 25.2045C152.847 24.5227 152.964 23.7344 152.964 22.8395C152.964 21.9304 152.847 21.1349 152.613 20.4531C152.385 19.7713 152.055 19.2386 151.622 18.8551C151.189 18.4716 150.66 18.2798 150.035 18.2798C149.388 18.2798 148.841 18.4716 148.394 18.8551C147.954 19.2386 147.616 19.7713 147.382 20.4531C147.155 21.1349 147.041 21.9304 147.041 22.8395C147.041 23.7344 147.155 24.5227 147.382 25.2045C147.616 25.8864 147.954 26.419 148.394 26.8026C148.841 27.1861 149.388 27.3778 150.035 27.3778ZM160.938 31V9.18182H170.036C171.67 9.18182 173.037 9.41264 174.138 9.87429C175.246 10.3359 176.077 10.9822 176.631 11.8132C177.192 12.6442 177.472 13.6065 177.472 14.7003C177.472 15.5312 177.298 16.2734 176.95 16.9268C176.602 17.5732 176.123 18.1094 175.512 18.5355C174.901 18.9616 174.195 19.2599 173.392 19.4304V19.6435C174.273 19.6861 175.086 19.924 175.832 20.3572C176.585 20.7905 177.188 21.3942 177.643 22.1683C178.097 22.9354 178.325 23.8445 178.325 24.8956C178.325 26.0675 178.026 27.1151 177.43 28.0384C176.833 28.9545 175.97 29.679 174.841 30.2116C173.712 30.7372 172.341 31 170.729 31H160.938ZM166.212 26.7493H169.472C170.615 26.7493 171.457 26.5327 171.997 26.0994C172.544 25.6662 172.817 25.0625 172.817 24.2884C172.817 23.7273 172.686 23.2443 172.423 22.8395C172.16 22.4276 171.787 22.1115 171.304 21.8913C170.821 21.6641 170.242 21.5504 169.568 21.5504H166.212V26.7493ZM166.212 18.152H169.131C169.706 18.152 170.218 18.0561 170.665 17.8643C171.112 17.6726 171.46 17.3956 171.709 17.0334C171.965 16.6712 172.093 16.2344 172.093 15.723C172.093 14.9915 171.833 14.4162 171.315 13.9972C170.796 13.5781 170.097 13.3686 169.216 13.3686H166.212V18.152ZM186.07 9.18182V31H180.86V9.18182H186.07ZM197.024 31.3089C195.305 31.3089 193.828 30.9574 192.592 30.2543C191.364 29.544 190.415 28.5568 189.748 27.2926C189.087 26.0213 188.757 24.5476 188.757 22.8714C188.757 21.1882 189.087 19.7145 189.748 18.4503C190.415 17.179 191.364 16.1918 192.592 15.4886C193.828 14.7784 195.305 14.4233 197.024 14.4233C198.743 14.4233 200.217 14.7784 201.445 15.4886C202.681 16.1918 203.629 17.179 204.29 18.4503C204.957 19.7145 205.291 21.1882 205.291 22.8714C205.291 24.5476 204.957 26.0213 204.29 27.2926C203.629 28.5568 202.681 29.544 201.445 30.2543C200.217 30.9574 198.743 31.3089 197.024 31.3089ZM197.056 27.3778C197.681 27.3778 198.21 27.1861 198.643 26.8026C199.077 26.419 199.407 25.8864 199.634 25.2045C199.869 24.5227 199.986 23.7344 199.986 22.8395C199.986 21.9304 199.869 21.1349 199.634 20.4531C199.407 19.7713 199.077 19.2386 198.643 18.8551C198.21 18.4716 197.681 18.2798 197.056 18.2798C196.41 18.2798 195.863 18.4716 195.415 18.8551C194.975 19.2386 194.638 19.7713 194.403 20.4531C194.176 21.1349 194.062 21.9304 194.062 22.8395C194.062 23.7344 194.176 24.5227 194.403 25.2045C194.638 25.8864 194.975 26.419 195.415 26.8026C195.863 27.1861 196.41 27.3778 197.056 27.3778ZM215.588 37.4773C214.032 37.4773 212.701 37.2607 211.593 36.8274C210.485 36.3942 209.615 35.8011 208.983 35.0483C208.35 34.2955 207.971 33.4432 207.843 32.4915L212.775 32.2145C212.868 32.5483 213.038 32.8395 213.287 33.0881C213.542 33.3366 213.873 33.5284 214.277 33.6634C214.689 33.7983 215.172 33.8658 215.726 33.8658C216.6 33.8658 217.321 33.6527 217.889 33.2266C218.464 32.8075 218.752 32.0724 218.752 31.0213V28.1449H218.571C218.365 28.6491 218.052 29.1001 217.633 29.4979C217.214 29.8956 216.692 30.2081 216.067 30.4354C215.449 30.6626 214.739 30.7763 213.936 30.7763C212.743 30.7763 211.65 30.4993 210.655 29.9453C209.668 29.3842 208.876 28.5178 208.279 27.3459C207.69 26.1669 207.395 24.6506 207.395 22.7969C207.395 20.8864 207.701 19.3132 208.311 18.0774C208.922 16.8345 209.721 15.9148 210.708 15.3182C211.703 14.7216 212.772 14.4233 213.915 14.4233C214.775 14.4233 215.51 14.5724 216.12 14.8707C216.738 15.1619 217.246 15.5384 217.644 16C218.042 16.4616 218.343 16.9411 218.549 17.4382H218.699V14.6364H223.887V31.0639C223.887 32.4489 223.539 33.6172 222.843 34.5689C222.147 35.5206 221.174 36.2415 219.924 36.7315C218.674 37.2287 217.228 37.4773 215.588 37.4773ZM215.748 26.9837C216.38 26.9837 216.919 26.8168 217.367 26.483C217.814 26.1491 218.159 25.6697 218.4 25.0447C218.642 24.4197 218.762 23.6705 218.762 22.7969C218.762 21.9091 218.642 21.1456 218.4 20.5064C218.166 19.8601 217.821 19.3629 217.367 19.0149C216.919 18.6669 216.38 18.4929 215.748 18.4929C215.101 18.4929 214.554 18.6705 214.107 19.0256C213.659 19.3807 213.319 19.8814 213.084 20.5277C212.857 21.1669 212.743 21.9233 212.743 22.7969C212.743 23.6705 212.86 24.4197 213.095 25.0447C213.329 25.6697 213.667 26.1491 214.107 26.483C214.554 26.8168 215.101 26.9837 215.748 26.9837Z" fill="black"/>
</g>
<defs>
<clipPath id="clip0_8_3">
<rect width="242" height="40" fill="white"/>
</clipPath>
</defs>
</svg>
